<svg width="32" height="32" viewBox="0 0 32 32" fill="none" xmlns="http://www.w3.org/2000/svg">
  <style>
    /* Стили для светлой темы (по умолчанию) */
    .icon-path {
      fill: #000000;
    }
    
    /* Стили для темной темы */
    @media (prefers-color-scheme: dark) {
      .icon-path {
        fill: #ffffff;
      }
    }
  </style>
  
  <path class="icon-path" d="M16.5549 1.99395C16.214 2.14114 15.8809 2.55947 15.4393 3.37289C14.5872 4.9455 14.2365 4.94557 13.5774 3.68295C13.1901 2.88503 12.9499 2.46683 12.6555 2.31189C12.0978 2.02526 11.2146 2.23468 10.6491 2.86992C10.4864 3.06359 10.0608 3.65728 9.77412 4.08336C8.78559 5.5528 8.28742 5.92526 7.82268 4.40341C7.74522 4.17875 7.52807 3.85657 7.43511 3.7946C6.85644 3.40882 6.00201 3.86577 4.87097 4.99681C4.45264 5.42288 3.90925 5.98683 3.94023 6.01781C4.04727 6.01781 4.43976 5.90939 4.74224 5.76355C5.11635 5.62199 5.24161 5.51053 5.49274 5.27477C5.90576 4.87355 6.32615 4.54544 6.58292 5.15939C6.89927 6.29851 7.24314 6.52568 8.00313 6.52568C9.05012 6.52568 9.9364 5.74362 10.6491 4.53511C11.0519 3.85338 11.3025 3.37289 11.7665 3.37289C12.1294 3.37289 12.1143 3.60549 12.5171 4.40341C12.951 5.2788 13.3043 5.62199 13.8233 5.73044C14.3269 5.8389 14.5069 5.86989 14.964 5.73044C15.5838 5.54452 15.8008 5.20134 16.7149 3.58224C16.9783 3.12518 17.2035 3.06317 17.4591 3.16388C17.7225 3.26459 17.8444 3.46318 18.3479 4.31533C18.7727 5.19403 19.2888 5.58971 19.6684 5.79113C20.2726 6.101 21.2545 6.01475 21.6264 5.67389C22.0619 5.30057 22.2139 3.89853 22.8469 3.89853C23.0716 3.89853 23.446 4.36747 24.1897 5.34357C24.9412 6.32742 25.2385 6.69694 25.886 6.90711C26.9783 7.38741 27.9366 7.19112 27.9712 6.30067C27.9867 6.09925 27.9258 6.16163 27.4378 5.96021C27.1434 5.83626 26.7576 5.69541 26.7266 5.69541C26.5053 5.69541 26.6241 6.02523 26.2902 6.07034C25.9414 6.03853 25.8019 5.92954 24.9343 4.84498C24.5392 4.35693 23.9079 3.61208 23.6833 3.41066C22.9551 2.72894 22.0602 2.57728 21.6264 2.91814C21.1086 3.31266 21.1245 4.079 20.7342 4.57341C20.3236 5.11569 19.9918 4.92245 19.1087 3.48154C18.5974 2.65262 18.2545 2.18762 17.7975 1.99395C17.4644 1.85451 16.8648 1.85451 16.5549 1.99395Z"/>
  
  <path class="icon-path" d="M17.0262 7.94864C16.3135 8.12682 16.0442 8.32388 15.3005 9.53239C14.735 10.4465 14.6666 10.589 14.318 10.589C13.9616 10.589 13.8251 10.4712 13.2828 9.56481C12.5778 8.40278 12.1681 8.05521 11.285 8.05521C10.4561 8.05521 9.73121 8.42242 8.85249 9.85145C8.34895 10.5874 7.98571 10.9123 7.6526 10.9123C7.33498 10.9123 7.20046 10.779 6.76664 10.0275C6.19255 8.95005 5.95824 8.96836 5.4392 8.92188C4.55606 8.85215 3.84078 9.20412 2.80669 10.2526C2.38185 10.6833 2.25663 10.8412 2.41176 10.8333H2.58698C2.78583 10.8375 3.09157 10.8487 3.45911 10.8333C4.15181 10.6893 4.56215 9.76245 5.04815 10.0275C5.14111 10.074 5.34189 10.4304 5.52007 10.7402C6.12488 11.8791 6.65175 12.0495 7.53489 12.0495C8.3793 12.0495 9.09089 11.6375 9.88881 10.5375C10.679 9.46066 10.7963 9.26835 11.0675 9.21412C11.4006 9.15215 11.5712 9.40785 12.005 10.167C12.4776 10.9805 13.0895 11.5701 13.5388 11.6863C14.0036 11.818 14.8305 11.7639 15.2101 11.5625C15.6207 11.3533 15.8782 11.0734 16.4748 10.1437C17.4288 8.7193 17.6042 8.71391 18.5843 10.2217C18.8864 10.6865 19.3315 11.2346 19.5019 11.3895C20.2611 12.0403 21.6729 11.9797 22.3314 11.3368C22.8491 10.8478 23.0977 9.71343 23.8383 9.52142C24.1405 9.44396 24.4822 9.83416 24.947 10.4849C25.2026 10.8335 25.4947 11.2469 25.6729 11.4484C26.3625 12.3128 28.0519 12.5339 28.9937 11.848C29.3423 11.5459 29.6118 11.0346 29.5034 10.9494C29.423 10.8622 28.4153 10.7444 28.0519 10.7444C27.8014 11.017 27.8258 11.2054 27.4173 11.2311C26.8387 11.192 26.8323 11.0656 25.9569 9.93458C25.6703 9.56273 25.325 9.13446 25.152 9.00618C24.3196 8.38902 23.5174 8.19499 22.7082 8.47817C22.1111 8.76476 21.7242 9.80388 21.3778 10.3368C20.9793 10.7587 20.7356 10.7212 20.3404 10.4769C20.2165 10.3374 19.8911 9.90359 19.62 9.5085C19.3488 9.10566 19.0354 8.56826 18.8495 8.40557C18.3537 7.97175 17.6537 7.78595 17.0262 7.94864Z"/>
  
  <path class="icon-path" d="M16.9038 13.8643C16.2995 14.0502 15.9249 14.4254 15.2509 15.4634C14.7008 16.3078 14.5345 16.4811 14.2169 16.4811C13.8528 16.4811 13.7892 16.4316 13.2314 15.5639C12.6272 14.6343 12.4017 14.3141 12.0066 14.1127C11.3713 13.7796 10.1727 13.8366 9.59947 14.2549C9.42904 14.3711 8.98699 14.8733 8.71585 15.2451C7.91018 16.3452 7.82822 16.4627 7.50286 16.4627C7.18523 16.4627 7.0318 16.3562 6.60573 15.7597C5.86203 14.7139 5.69049 14.4482 5.2954 14.2622C4.69889 13.9679 3.9889 13.9727 3.33816 14.1741C2.65602 14.3798 2.15851 15.005 1.81409 15.5976H2.68376C3.39647 15.6208 3.29736 15.6131 3.56075 15.3807C3.76991 15.2025 3.90161 15.1483 4.15726 15.1483C4.5446 15.1483 4.73052 15.3187 5.47422 16.3258C6.0935 17.2829 6.747 17.5021 7.6201 17.5498C8.52648 17.5498 8.9758 17.2322 9.77372 16.0391C10.1456 15.4891 10.378 15.218 10.5871 15.1095C10.7963 15.0011 10.9667 15.0011 11.1682 15.1095C11.3696 15.218 11.5539 15.4891 11.918 16.0391C12.5954 17.1545 13.0506 17.4258 13.6239 17.5963C14.4373 17.8287 15.212 17.6272 15.7853 17.0385C15.9402 16.8836 16.2268 16.4885 16.4205 16.1631C16.9318 15.3264 17.2727 14.9933 17.5903 14.9933C17.9854 14.9933 18.1233 15.2954 18.6811 16.1631C19.3468 17.1986 20.031 17.8573 21.4781 17.4332C22.1056 17.2782 22.475 17.0244 23.0947 16.1181C23.3581 15.7385 23.7009 15.2707 23.8248 15.1622C24.2897 14.7749 24.6694 14.9952 25.3124 15.9171C25.8005 16.6143 25.9713 17.0596 26.7161 17.2322C27.5588 17.3856 28.4281 17.3639 29.0479 16.9223C29.35 16.6976 30 15.8034 30 15.695C30 15.6799 28.4318 15.6775 28.4208 15.695C28.3046 15.8809 27.8142 16.3072 27.6283 16.3072C27.3262 16.3072 27.1886 16.2948 26.6309 15.5279C25.7943 14.2764 25.387 13.9088 24.1634 13.9088C23.0581 13.9088 22.826 14.1597 22.0435 15.3063C21.416 16.2281 21.2828 16.4202 20.9264 16.4202C20.5778 16.4202 20.3714 16.3025 19.8834 15.5511C19.2869 14.6215 18.9082 14.1236 18.4046 13.9299C17.9785 13.775 17.2679 13.7558 16.9038 13.8643Z"/>
  
  <path class="icon-path" d="M3.034 19.1835C2.70863 19.3306 2.22029 20.0072 2.29776 20.1311C2.321 20.1699 2.71632 20.2844 3.06493 20.3386C3.67693 20.4238 3.70792 20.4238 3.83186 20.2689C4.09526 19.9435 4.54457 19.9203 4.91642 20.2224C5.01713 20.3076 5.35025 20.6872 5.66012 21.0746C6.41157 22.0197 6.80666 22.3915 7.3102 22.6084C7.87572 22.8563 8.20884 22.9106 8.65815 22.8254C9.13071 22.7401 9.45608 22.4303 9.91314 21.6556C10.5251 20.6098 10.7384 20.3463 11.3308 20.6795C11.4548 20.7492 11.8189 21.1908 12.1907 21.7331C12.5471 22.2521 12.9131 22.8075 13.068 22.9392C13.618 23.3963 14.5805 23.4294 15.2002 23.1118C15.6186 22.9027 15.8977 22.5375 16.4632 21.6233C17.0519 20.6782 17.1908 20.6141 17.5626 20.6141C17.8648 20.6141 18.1268 21.052 18.5762 21.8267C18.9403 22.462 19.4185 22.8641 19.6974 23.0035C20.3636 23.3444 21.3397 23.1507 22.0215 22.5387C22.2306 22.3528 22.6102 21.8957 22.8659 21.5239C23.7008 20.3144 24.2382 19.6286 25.0191 21.2194C25.6311 22.3117 26.0343 22.4225 26.902 22.2831C27.4055 22.2056 27.7696 22.0352 28.3119 21.6401C28.6993 21.3612 29.5134 20.3489 29.4514 20.287C29.4282 20.2715 29.159 20.2637 28.8491 20.287C28.2991 20.3412 28.0915 20.3123 27.8009 20.6492C27.0622 21.4096 26.8168 21.5161 26.2203 20.4626C25.7708 19.4588 25.0546 19.1048 24.1606 19.1048C23.1458 19.0893 22.6316 19.5872 21.6012 21.0358C21.028 21.8415 21.0108 21.935 20.6854 21.935C20.3988 21.935 20.0147 21.7331 19.6742 21.0358C19.1061 19.8726 18.6762 19.5298 17.8628 19.4446C16.5461 19.3028 15.962 19.9231 15.3452 21.0358C14.6325 22.1126 14.6405 22.0937 14.3461 22.0937C13.9665 22.0937 13.9094 22.1307 13.2974 21.2089C12.5873 20.1775 12.1583 19.1824 10.4613 19.3794C9.65831 19.5157 9.49622 19.7646 8.94619 20.6167C7.92361 22.1971 7.85448 22.1733 6.40582 20.1824C5.80157 19.3535 5.02072 18.9337 4.07561 18.9337C3.71925 18.9337 3.24316 19.0905 3.034 19.1835Z"/>
  
  <path class="icon-path" d="M4.1071 24.197C3.94442 24.3829 3.82166 24.796 3.82166 24.9277C3.94795 25.0406 4.89061 25.4006 5.09459 25.4748C5.28629 25.1872 5.4728 25.0659 5.8228 25.2501C6.07069 25.3818 6.19464 25.5135 7.17849 26.7452C8.20108 28.0157 8.84634 28.4029 9.65976 28.4029C10.0626 28.4029 10.3702 28.1474 10.6723 27.3882C11.1907 25.9856 11.6181 25.8472 12.6127 27.63C13.3909 29.025 13.7795 29.2529 14.6379 29.2529C15.3506 29.2529 15.6619 28.9824 16.2971 27.8049C16.7387 26.9837 17.089 26.5541 17.3214 26.5541C17.6081 26.5541 17.8765 27.0291 18.3336 27.8967C18.8449 28.8883 19.1543 28.9769 19.774 28.9769C20.6111 28.8815 21.1459 28.3194 22.0912 27.1171C22.8659 25.9706 23.2222 25.6917 23.6018 25.9396C24.0406 26.4083 23.7145 27.7045 25.0792 27.4711C26.2932 27.045 27.2449 25.8609 27.889 25.0115C27.3406 25.2095 26.7732 25.3155 26.5769 25.485C26.1753 25.9024 25.5051 26.6766 25.2209 26.11C24.7561 25.0719 24.5158 24.6882 23.8961 24.6262C23.117 24.6262 22.0027 24.936 21.1136 26.5929C20.0061 28.1844 19.926 28.0446 19.3101 27.0551C18.9305 26.2882 18.6533 25.7921 18.3745 25.6449C18.0878 25.49 17.3537 25.3665 16.9664 25.4517C16.2769 25.5989 15.7698 26.1548 15.1113 27.4563C14.8944 27.8746 14.7123 28.0989 14.5187 28.0989C14.2863 28.0989 14.0753 27.9305 13.595 27.1248C12.7816 25.7614 12.3583 25.174 11.1907 25.174C9.50056 25.174 9.89669 26.6023 9.13118 27.2287C8.86779 27.3914 8.61098 27.1768 7.85953 26.1852C6.92991 24.9767 6.56191 24.5939 5.89569 24.2763C5.53751 24.1004 4.44244 23.8007 4.1071 24.197Z"/>
</svg>
